<svg xmlns="http://www.w3.org/2000/svg" width="52.5" height="52.5" viewBox="0 0 42 42">
  <defs>
    <style>
      .cls-1 {
        fill: #8207c1;
        fill-rule: evenodd;
      }
    </style>
  </defs>
  <path id="_5" data-name="5" class="cls-1" d="M246,786V744h42v42H246Zm39.012-39.013H248.988V783.01h36.024V746.985Zm-26.412,7h16.8S281,756.91,281,765s-5.6,11.013-5.6,11.013H258.6A12.76,12.76,0,0,1,253,765C253,756.8,258.6,753.986,258.6,753.986Zm1.517,20.021h13.766a10.442,10.442,0,0,0,4.129-8.509,11.421,11.421,0,0,0-4.129-8.51H260.117a10.069,10.069,0,0,0-4.129,8.51A10.989,10.989,0,0,0,260.117,774.007Zm3.9-6.007h-3.02v-6.006h3.02V768Zm8.994,0h-3.021v-6.006h3.021V768Z" transform="translate(-246 -744)"/>
</svg>
