<svg xmlns="http://www.w3.org/2000/svg" width="52.5" height="42.5" viewBox="0 0 42 34">
  <defs>
    <style>
      .cls-1 {
        fill: #8207c1;
        fill-rule: evenodd;
      }
    </style>
  </defs>
  <path id="_4" data-name="4" class="cls-1" d="M246,669.986V636.011h14V646h14v-9.989h14v33.975H246ZM257,639h-8v28h8V639Zm17,10H260v18h14V649Zm11-10h-8v28h8V639Zm-14,23h-8v-3h8v3Zm-4-6.019a1.992,1.992,0,1,1,1.991-1.991A1.99,1.99,0,0,1,267,655.981ZM253,646a2,2,0,1,1-1.991,2A2,2,0,0,1,253,646Zm0,9.982a3,3,0,1,1-2.987,3A3,3,0,0,1,253,655.986ZM281,646a2,2,0,1,1-1.991,2A2,2,0,0,1,281,646Zm0,9.982a3,3,0,1,1-2.987,3A3,3,0,0,1,281,655.986Z" transform="translate(-246 -636)"/>
</svg>
