<?xml version="1.0" encoding="utf-8"?>
<!-- Generator: Adobe Illustrator 24.1.2, SVG Export Plug-In . SVG Version: 6.00 Build 0)  -->
<svg version="1.1" id="Shape_1_xA0_Image_1_" xmlns="http://www.w3.org/2000/svg" xmlns:xlink="http://www.w3.org/1999/xlink"
	 x="0px" y="0px" viewBox="0 0 38 38" style="enable-background:new 0 0 38 38;" xml:space="preserve">
<style type="text/css">
	.st0{fill:#FFFFFF;}
</style>
<g id="NJpU7K.tif">
	
		<image style="display:none;overflow:visible;enable-background:new    ;" width="39" height="39" id="Layer_1_1_" xlink:href="B58845544BDB6758.png"  transform="matrix(0.9602 0 0 0.9602 0.2764 0.5528)">
	</image>
	<path class="st0" d="M14.6,0.3C6.9,0.3,0.7,6.6,0.7,14.3s6.2,13.9,13.9,13.9S28.5,22,28.5,14.3S22.3,0.3,14.6,0.3z M14.6,24.9
		C8.7,24.9,4,20.2,4,14.3S8.7,3.6,14.6,3.6s10.6,4.8,10.6,10.6S20.5,24.9,14.6,24.9z"/>
	<rect x="28.4" y="21.2" transform="matrix(0.7071 -0.7071 0.7071 0.7071 -12.2249 29.99)" class="st0" width="3.4" height="17.1"/>
</g>
</svg>
